# This file uses centimeters as units for non-parametric coordinates.

mtllib centerCube.mtl
g default
v -0.500000 -0.440006 0.440006
v -0.440006 -0.500000 0.440006
v -0.440006 -0.440006 0.500000
v 0.440006 -0.500000 0.440006
v 0.500000 -0.440006 0.440006
v 0.440006 -0.440006 0.500000
v -0.440006 0.500000 0.440006
v -0.500000 0.440006 0.440006
v -0.440006 0.440006 0.500000
v 0.500000 0.440006 0.440006
v 0.440006 0.500000 0.440006
v 0.440006 0.440006 0.500000
v -0.440006 0.440006 -0.500000
v -0.500000 0.440006 -0.440006
v -0.440006 0.500000 -0.440006
v 0.500000 0.440006 -0.440006
v 0.440006 0.440006 -0.500000
v 0.440006 0.500000 -0.440006
v -0.440006 -0.500000 -0.440006
v -0.500000 -0.440006 -0.440006
v -0.440006 -0.440006 -0.500000
v 0.500000 -0.440006 -0.440006
v 0.440006 -0.500000 -0.440006
v 0.440006 -0.440006 -0.500000
v -0.337338 -0.444455 -0.337338
v 0.337338 -0.444455 -0.337338
v 0.337338 -0.444455 0.337338
v -0.337338 -0.444455 0.337338
v 0.337338 -0.337338 0.444455
v 0.337338 0.337338 0.444455
v -0.337338 0.337338 0.444455
v -0.337338 -0.337338 0.444455
v -0.444455 0.337338 0.337338
v -0.444455 0.337338 -0.337338
v -0.444455 -0.337338 -0.337338
v -0.444455 -0.337338 0.337338
v 0.444455 -0.337338 -0.337338
v 0.444455 0.337338 -0.337338
v 0.444455 0.337338 0.337338
v 0.444455 -0.337338 0.337338
v 0.337338 0.444455 0.337338
v 0.337338 0.444455 -0.337338
v -0.337338 0.444455 -0.337338
v -0.337338 0.444455 0.337338
v 0.337338 0.337338 -0.444455
v 0.337338 -0.337338 -0.444455
v -0.337338 -0.337338 -0.444455
v -0.337338 0.337338 -0.444455
v -0.337338 -0.398481 -0.337338
v 0.337338 -0.398481 -0.337338
v 0.337338 -0.398481 0.337338
v -0.337338 -0.398481 0.337338
v 0.337338 -0.337338 0.398481
v 0.337338 0.337338 0.398481
v -0.337338 0.337338 0.398481
v -0.337338 -0.337338 0.398481
v -0.398481 0.337338 0.337338
v -0.398481 0.337338 -0.337338
v -0.398481 -0.337338 -0.337338
v -0.398481 -0.337338 0.337338
v 0.398481 -0.337338 -0.337338
v 0.398481 0.337338 -0.337338
v 0.398481 0.337338 0.337338
v 0.398481 -0.337338 0.337338
v 0.337338 0.398481 0.337338
v 0.337338 0.398481 -0.337338
v -0.337338 0.398481 -0.337338
v -0.337338 0.398481 0.337338
v 0.337338 0.337338 -0.398481
v 0.337338 -0.337338 -0.398481
v -0.337338 -0.337338 -0.398481
v -0.337338 0.337338 -0.398481
vt 0.610002 0.985002
vt 0.360002 0.235002
vt 0.139998 0.235002
vt 0.139998 0.014998
vt 0.860002 0.014999
vt 0.860002 0.235002
vt 0.389998 0.985002
vt 0.375000 0.985002
vt 0.375000 0.764998
vt 0.360002 0.014999
vt 0.625000 0.985002
vt 0.625000 0.764998
vt 0.610002 0.014999
vt 0.375000 0.264998
vt 0.375000 0.485002
vt 0.389998 0.264998
vt 0.610002 0.235002
vt 0.610002 0.264998
vt 0.625000 0.264998
vt 0.375000 0.514998
vt 0.389998 0.514998
vt 0.610002 0.485002
vt 0.610002 0.514998
vt 0.625000 0.514998
vt 0.625000 0.735002
vt 0.389998 0.764998
vt 0.610002 0.735002
vt 0.389998 0.000000
vt 0.389998 0.014998
vt 0.610002 0.000000
vt 0.639998 0.014998
vt 0.389998 0.235002
vt 0.639999 0.235002
vt 0.389998 0.485002
vt 0.625000 0.485002
vt 0.375000 0.735002
vt 0.389998 0.735002
vt 0.610002 0.764999
vt 0.389998 0.764998
vt 0.610002 0.764999
vt 0.610002 0.985002
vt 0.389998 0.985002
vt 0.610002 0.014999
vt 0.610002 0.235002
vt 0.389998 0.235002
vt 0.389998 0.014998
vt 0.360002 0.235002
vt 0.139998 0.235002
vt 0.139998 0.014998
vt 0.360002 0.014999
vt 0.860002 0.014999
vt 0.860002 0.235002
vt 0.639999 0.235002
vt 0.639998 0.014998
vt 0.610002 0.264998
vt 0.610002 0.485002
vt 0.389998 0.485002
vt 0.389998 0.264998
vt 0.610002 0.514998
vt 0.610002 0.735002
vt 0.389998 0.735002
vt 0.389998 0.514998
vt 0.389998 0.764998
vt 0.610002 0.764999
vt 0.610002 0.985002
vt 0.389998 0.985002
vt 0.610002 0.014999
vt 0.610002 0.235002
vt 0.389998 0.235002
vt 0.389998 0.014998
vt 0.360002 0.235002
vt 0.139998 0.235002
vt 0.139998 0.014998
vt 0.360002 0.014999
vt 0.860002 0.014999
vt 0.860002 0.235002
vt 0.639999 0.235002
vt 0.639998 0.014998
vt 0.610002 0.264998
vt 0.610002 0.485002
vt 0.389998 0.485002
vt 0.389998 0.264998
vt 0.610002 0.514998
vt 0.610002 0.735002
vt 0.389998 0.735002
vt 0.389998 0.514998
vn 0.000000 -1.000000 0.000000
vn 0.000000 -1.000000 0.000000
vn 0.000000 -1.000000 0.000000
vn 0.000000 -1.000000 0.000000
vn 0.000000 0.000000 1.000000
vn 0.000000 0.000000 1.000000
vn 0.000000 0.000000 1.000000
vn 0.000000 0.000000 1.000000
vn -1.000000 0.000000 0.000000
vn -1.000000 0.000000 0.000000
vn -1.000000 0.000000 0.000000
vn -1.000000 0.000000 0.000000
vn 1.000000 0.000000 0.000000
vn 1.000000 0.000000 0.000000
vn 1.000000 0.000000 0.000000
vn 1.000000 0.000000 0.000000
vn 0.000000 1.000000 0.000000
vn 0.000000 1.000000 0.000000
vn 0.000000 1.000000 0.000000
vn 0.000000 1.000000 0.000000
vn 0.000000 0.000000 -1.000000
vn 0.000000 0.000000 -1.000000
vn 0.000000 0.000000 -1.000000
vn 0.000000 0.000000 -1.000000
vn -0.707107 -0.707107 0.000000
vn -0.707107 -0.707107 0.000000
vn -0.707107 -0.707107 0.000000
vn -0.707107 -0.707107 0.000000
vn 0.000000 -0.707107 0.707107
vn 0.000000 -0.707107 0.707107
vn 0.000000 -0.707107 0.707107
vn 0.000000 -0.707107 0.707107
vn -0.707107 0.000000 0.707107
vn -0.707107 0.000000 0.707107
vn -0.707107 0.000000 0.707107
vn -0.707107 0.000000 0.707107
vn 0.707107 -0.707107 0.000000
vn 0.707107 -0.707107 0.000000
vn 0.707107 -0.707107 0.000000
vn 0.707107 -0.707107 0.000000
vn 0.707107 0.000000 0.707107
vn 0.707107 0.000000 0.707107
vn 0.707107 0.000000 0.707107
vn 0.707107 0.000000 0.707107
vn -0.707107 0.707107 0.000000
vn -0.707107 0.707107 0.000000
vn -0.707107 0.707107 0.000000
vn -0.707107 0.707107 0.000000
vn 0.000000 0.707107 0.707107
vn 0.000000 0.707107 0.707107
vn 0.000000 0.707107 0.707107
vn 0.000000 0.707107 0.707107
vn 0.707107 0.707107 0.000000
vn 0.707107 0.707107 0.000000
vn 0.707107 0.707107 0.000000
vn 0.707107 0.707107 0.000000
vn -0.707107 0.000000 -0.707107
vn -0.707107 0.000000 -0.707107
vn -0.707107 0.000000 -0.707107
vn -0.707107 0.000000 -0.707107
vn 0.000000 0.707107 -0.707107
vn 0.000000 0.707107 -0.707107
vn 0.000000 0.707107 -0.707107
vn 0.000000 0.707107 -0.707107
vn 0.707107 0.000000 -0.707107
vn 0.707107 0.000000 -0.707107
vn 0.707107 0.000000 -0.707107
vn 0.707107 0.000000 -0.707107
vn 0.000000 -0.707107 -0.707107
vn 0.000000 -0.707107 -0.707107
vn 0.000000 -0.707107 -0.707107
vn 0.000000 -0.707107 -0.707107
vn -0.577350 -0.577350 0.577350
vn -0.577350 -0.577350 0.577350
vn -0.577350 -0.577350 0.577350
vn 0.577350 -0.577350 0.577350
vn 0.577350 -0.577350 0.577350
vn 0.577350 -0.577350 0.577350
vn -0.577350 0.577350 0.577350
vn -0.577350 0.577350 0.577350
vn -0.577350 0.577350 0.577350
vn 0.577350 0.577350 0.577350
vn 0.577350 0.577350 0.577350
vn 0.577350 0.577350 0.577350
vn -0.577350 0.577350 -0.577350
vn -0.577350 0.577350 -0.577350
vn -0.577350 0.577350 -0.577350
vn 0.577350 0.577350 -0.577350
vn 0.577350 0.577350 -0.577350
vn 0.577350 0.577350 -0.577350
vn -0.577350 -0.577350 -0.577350
vn -0.577350 -0.577350 -0.577350
vn -0.577350 -0.577350 -0.577350
vn 0.577350 -0.577350 -0.577350
vn 0.577350 -0.577350 -0.577350
vn 0.577350 -0.577350 -0.577350
vn 0.000000 -0.879531 0.475842
vn 0.000000 -0.879531 0.475842
vn 0.000000 -0.879531 0.475842
vn 0.000000 -0.879531 0.475842
vn -0.475842 -0.879531 0.000000
vn -0.475842 -0.879531 0.000000
vn -0.475842 -0.879531 0.000000
vn -0.475842 -0.879531 0.000000
vn 0.000000 -0.879531 -0.475842
vn 0.000000 -0.879531 -0.475842
vn 0.000000 -0.879531 -0.475842
vn 0.000000 -0.879531 -0.475842
vn 0.475842 -0.879531 0.000000
vn 0.475842 -0.879531 0.000000
vn 0.475842 -0.879531 0.000000
vn 0.475842 -0.879531 0.000000
vn -0.475842 0.000000 0.879531
vn -0.475842 0.000000 0.879531
vn -0.475842 0.000000 0.879531
vn -0.475842 0.000000 0.879531
vn 0.000000 -0.475842 0.879531
vn 0.000000 -0.475842 0.879531
vn 0.000000 -0.475842 0.879531
vn 0.000000 -0.475842 0.879531
vn 0.475842 0.000000 0.879531
vn 0.475842 0.000000 0.879531
vn 0.475842 0.000000 0.879531
vn 0.475842 0.000000 0.879531
vn 0.000000 0.475842 0.879531
vn 0.000000 0.475842 0.879531
vn 0.000000 0.475842 0.879531
vn 0.000000 0.475842 0.879531
vn -0.879531 -0.475842 0.000000
vn -0.879531 -0.475842 0.000000
vn -0.879531 -0.475842 0.000000
vn -0.879531 -0.475842 0.000000
vn -0.879531 0.000000 0.475842
vn -0.879531 0.000000 0.475842
vn -0.879531 0.000000 0.475842
vn -0.879531 0.000000 0.475842
vn -0.879531 0.475842 0.000000
vn -0.879531 0.475842 0.000000
vn -0.879531 0.475842 0.000000
vn -0.879531 0.475842 0.000000
vn -0.879531 0.000000 -0.475842
vn -0.879531 0.000000 -0.475842
vn -0.879531 0.000000 -0.475842
vn -0.879531 0.000000 -0.475842
vn 0.879531 0.000000 0.475842
vn 0.879531 0.000000 0.475842
vn 0.879531 0.000000 0.475842
vn 0.879531 0.000000 0.475842
vn 0.879531 -0.475842 0.000000
vn 0.879531 -0.475842 0.000000
vn 0.879531 -0.475842 0.000000
vn 0.879531 -0.475842 0.000000
vn 0.879531 0.000000 -0.475842
vn 0.879531 0.000000 -0.475842
vn 0.879531 0.000000 -0.475842
vn 0.879531 0.000000 -0.475842
vn 0.879531 0.475842 0.000000
vn 0.879531 0.475842 0.000000
vn 0.879531 0.475842 0.000000
vn 0.879531 0.475842 0.000000
vn -0.475842 0.879531 0.000000
vn -0.475842 0.879531 0.000000
vn -0.475842 0.879531 0.000000
vn -0.475842 0.879531 0.000000
vn 0.000000 0.879531 0.475842
vn 0.000000 0.879531 0.475842
vn 0.000000 0.879531 0.475842
vn 0.000000 0.879531 0.475842
vn 0.475842 0.879531 0.000000
vn 0.475842 0.879531 0.000000
vn 0.475842 0.879531 0.000000
vn 0.475842 0.879531 0.000000
vn 0.000000 0.879531 -0.475842
vn 0.000000 0.879531 -0.475842
vn 0.000000 0.879531 -0.475842
vn 0.000000 0.879531 -0.475842
vn -0.475842 0.000000 -0.879531
vn -0.475842 0.000000 -0.879531
vn -0.475842 0.000000 -0.879531
vn -0.475842 0.000000 -0.879531
vn 0.000000 0.475842 -0.879531
vn 0.000000 0.475842 -0.879531
vn 0.000000 0.475842 -0.879531
vn 0.000000 0.475842 -0.879531
vn 0.475842 0.000000 -0.879531
vn 0.475842 0.000000 -0.879531
vn 0.475842 0.000000 -0.879531
vn 0.475842 0.000000 -0.879531
vn 0.000000 -0.475842 -0.879531
vn 0.000000 -0.475842 -0.879531
vn 0.000000 -0.475842 -0.879531
vn 0.000000 -0.475842 -0.879531
vn 0.000000 0.000000 1.000000
vn 0.000000 0.000000 1.000000
vn 0.000000 0.000000 1.000000
vn 0.000000 0.000000 1.000000
vn -1.000000 0.000000 0.000000
vn -1.000000 0.000000 0.000000
vn -1.000000 0.000000 0.000000
vn -1.000000 0.000000 0.000000
vn 0.000000 0.000000 -1.000000
vn 0.000000 0.000000 -1.000000
vn 0.000000 0.000000 -1.000000
vn 0.000000 0.000000 -1.000000
vn 1.000000 0.000000 0.000000
vn 1.000000 0.000000 0.000000
vn 1.000000 0.000000 0.000000
vn 1.000000 0.000000 0.000000
vn -1.000000 0.000000 0.000000
vn -1.000000 0.000000 0.000000
vn -1.000000 0.000000 0.000000
vn -1.000000 0.000000 0.000000
vn 0.000000 -1.000000 0.000000
vn 0.000000 -1.000000 0.000000
vn 0.000000 -1.000000 0.000000
vn 0.000000 -1.000000 0.000000
vn 1.000000 0.000000 0.000000
vn 1.000000 0.000000 0.000000
vn 1.000000 0.000000 0.000000
vn 1.000000 0.000000 0.000000
vn 0.000000 1.000000 0.000000
vn 0.000000 1.000000 0.000000
vn 0.000000 1.000000 0.000000
vn 0.000000 1.000000 0.000000
vn 0.000000 -1.000000 0.000000
vn 0.000000 -1.000000 0.000000
vn 0.000000 -1.000000 0.000000
vn 0.000000 -1.000000 0.000000
vn 0.000000 0.000000 1.000000
vn 0.000000 0.000000 1.000000
vn 0.000000 0.000000 1.000000
vn 0.000000 0.000000 1.000000
vn 0.000000 1.000000 0.000000
vn 0.000000 1.000000 0.000000
vn 0.000000 1.000000 0.000000
vn 0.000000 1.000000 0.000000
vn 0.000000 0.000000 -1.000000
vn 0.000000 0.000000 -1.000000
vn 0.000000 0.000000 -1.000000
vn 0.000000 0.000000 -1.000000
vn 0.000000 0.000000 1.000000
vn 0.000000 0.000000 1.000000
vn 0.000000 0.000000 1.000000
vn 0.000000 0.000000 1.000000
vn 0.000000 -1.000000 0.000000
vn 0.000000 -1.000000 0.000000
vn 0.000000 -1.000000 0.000000
vn 0.000000 -1.000000 0.000000
vn 0.000000 0.000000 -1.000000
vn 0.000000 0.000000 -1.000000
vn 0.000000 0.000000 -1.000000
vn 0.000000 0.000000 -1.000000
vn 0.000000 1.000000 0.000000
vn 0.000000 1.000000 0.000000
vn 0.000000 1.000000 0.000000
vn 0.000000 1.000000 0.000000
vn -1.000000 0.000000 0.000000
vn -1.000000 0.000000 0.000000
vn -1.000000 0.000000 0.000000
vn -1.000000 0.000000 0.000000
vn 0.000000 0.000000 1.000000
vn 0.000000 0.000000 1.000000
vn 0.000000 0.000000 1.000000
vn 0.000000 0.000000 1.000000
vn 1.000000 0.000000 0.000000
vn 1.000000 0.000000 0.000000
vn 1.000000 0.000000 0.000000
vn 1.000000 0.000000 0.000000
vn 0.000000 0.000000 -1.000000
vn 0.000000 0.000000 -1.000000
vn 0.000000 0.000000 -1.000000
vn 0.000000 0.000000 -1.000000
vn -1.000000 0.000000 0.000000
vn -1.000000 0.000000 0.000000
vn -1.000000 0.000000 0.000000
vn -1.000000 0.000000 0.000000
vn 0.000000 1.000000 0.000000
vn 0.000000 1.000000 0.000000
vn 0.000000 1.000000 0.000000
vn 0.000000 1.000000 0.000000
vn 1.000000 0.000000 0.000000
vn 1.000000 0.000000 0.000000
vn 1.000000 0.000000 0.000000
vn 1.000000 0.000000 0.000000
vn 0.000000 -1.000000 0.000000
vn 0.000000 -1.000000 0.000000
vn 0.000000 -1.000000 0.000000
vn 0.000000 -1.000000 0.000000
s off
g pCube1
usemtl initialShadingGroup
f 49/63/1 50/64/2 51/65/3 52/66/4
f 53/67/5 54/68/6 55/69/7 56/70/8
f 57/71/9 58/72/10 59/73/11 60/74/12
f 61/75/13 62/76/14 63/77/15 64/78/16
f 65/79/17 66/80/18 67/81/19 68/82/20
f 69/83/21 70/84/22 71/85/23 72/86/24
f 2/7/25 1/8/26 20/9/27 19/26/28
f 3/29/29 2/28/30 4/30/31 6/13/32
f 1/10/33 3/29/34 9/32/35 8/2/36
f 5/11/37 4/1/38 23/38/39 22/12/40
f 6/13/41 5/31/42 10/33/43 12/17/44
f 8/14/45 7/16/46 15/34/47 14/15/48
f 7/16/49 9/32/50 12/17/51 11/18/52
f 11/18/53 10/19/54 16/35/55 18/22/56
f 14/20/57 13/21/58 21/37/59 20/36/60
f 13/21/61 15/34/62 18/22/63 17/23/64
f 17/23/65 16/24/66 22/25/67 24/27/68
f 19/26/69 21/37/70 24/27/71 23/38/72
f 1/10/73 2/28/74 3/29/75
f 4/30/76 5/31/77 6/13/78
f 7/16/79 8/2/80 9/32/81
f 10/33/82 11/18/83 12/17/84
f 13/21/85 14/15/86 15/34/87
f 16/35/88 17/23/89 18/22/90
f 19/26/91 20/36/92 21/37/93
f 22/25/94 23/38/95 24/27/96
f 19/26/97 23/38/98 26/40/99 25/39/100
f 23/38/101 4/1/102 27/41/103 26/40/104
f 4/1/105 2/7/106 28/42/107 27/41/108
f 2/7/109 19/26/110 25/39/111 28/42/112
f 6/13/113 12/17/114 30/44/115 29/43/116
f 12/17/117 9/32/118 31/45/119 30/44/120
f 9/32/121 3/29/122 32/46/123 31/45/124
f 3/29/125 6/13/126 29/43/127 32/46/128
f 8/2/129 14/3/130 34/48/131 33/47/132
f 14/3/133 20/4/134 35/49/135 34/48/136
f 20/4/137 1/10/138 36/50/139 35/49/140
f 1/10/141 8/2/142 33/47/143 36/50/144
f 22/5/145 16/6/146 38/52/147 37/51/148
f 16/6/149 10/33/150 39/53/151 38/52/152
f 10/33/153 5/31/154 40/54/155 39/53/156
f 5/31/157 22/5/158 37/51/159 40/54/160
f 11/18/161 18/22/162 42/56/163 41/55/164
f 18/22/165 15/34/166 43/57/167 42/56/168
f 15/34/169 7/16/170 44/58/171 43/57/172
f 7/16/173 11/18/174 41/55/175 44/58/176
f 17/23/177 24/27/178 46/60/179 45/59/180
f 24/27/181 21/37/182 47/61/183 46/60/184
f 21/37/185 13/21/186 48/62/187 47/61/188
f 13/21/189 17/23/190 45/59/191 48/62/192
f 25/39/193 26/40/194 50/64/195 49/63/196
f 26/40/197 27/41/198 51/65/199 50/64/200
f 27/41/201 28/42/202 52/66/203 51/65/204
f 28/42/205 25/39/206 49/63/207 52/66/208
f 29/43/209 30/44/210 54/68/211 53/67/212
f 30/44/213 31/45/214 55/69/215 54/68/216
f 31/45/217 32/46/218 56/70/219 55/69/220
f 32/46/221 29/43/222 53/67/223 56/70/224
f 33/47/225 34/48/226 58/72/227 57/71/228
f 34/48/229 35/49/230 59/73/231 58/72/232
f 35/49/233 36/50/234 60/74/235 59/73/236
f 36/50/237 33/47/238 57/71/239 60/74/240
f 37/51/241 38/52/242 62/76/243 61/75/244
f 38/52/245 39/53/246 63/77/247 62/76/248
f 39/53/249 40/54/250 64/78/251 63/77/252
f 40/54/253 37/51/254 61/75/255 64/78/256
f 41/55/257 42/56/258 66/80/259 65/79/260
f 42/56/261 43/57/262 67/81/263 66/80/264
f 43/57/265 44/58/266 68/82/267 67/81/268
f 44/58/269 41/55/270 65/79/271 68/82/272
f 45/59/273 46/60/274 70/84/275 69/83/276
f 46/60/277 47/61/278 71/85/279 70/84/280
f 47/61/281 48/62/282 72/86/283 71/85/284
f 48/62/285 45/59/286 69/83/287 72/86/288
